<svg xmlns="http://www.w3.org/2000/svg" width="220.56" height="31.605" viewBox="0 0 220.56 31.605">
  <g id="Group_1100" data-name="Group 1100" transform="translate(-81.716 -75.045)">
    <ellipse id="Ellipse_216" data-name="Ellipse 216" cx="70.638" cy="4.688" rx="70.638" ry="4.688" transform="translate(158.733 97.274)" fill="#8fc31f"/>
    <path id="Path_401" data-name="Path 401" d="M477.871,173.238h-.037V173.2a1.192,1.192,0,0,0-1.189-1.189h0a1.192,1.192,0,0,0-1.189,1.189v.037h-.036a1.189,1.189,0,1,0,0,2.377h.036v.037a1.192,1.192,0,0,0,1.189,1.189h0a1.192,1.192,0,0,0,1.189-1.189v-.037h.037a1.189,1.189,0,1,0,0-2.377Z" transform="translate(-291.528 -72.02)" fill="#fff"/>
    <path id="Path_402" data-name="Path 402" d="M733.6,166.4h-.036v-.037a1.192,1.192,0,0,0-1.189-1.189h0a1.192,1.192,0,0,0-1.189,1.189v.037h-.037a1.189,1.189,0,0,0,0,2.377h.037v.037A1.192,1.192,0,0,0,732.376,170h0a1.192,1.192,0,0,0,1.189-1.189v-.037h.036a1.189,1.189,0,0,0,0-2.377Z" transform="translate(-481.463 -66.942)" fill="#fff"/>
    <path id="Path_403" data-name="Path 403" d="M901.938,116.148s.764-2.571,4.429-2.8c3.495-.218,5.1,1.3,5.1,1.3a8.554,8.554,0,0,1-4.979,2.792A6.161,6.161,0,0,1,901.938,116.148Z" transform="translate(-609.193 -28.434)" fill="#22ac38"/>
    <path id="Path_404" data-name="Path 404" d="M901.052,101.167s-1.01-2.057,1.161-4.326a5.953,5.953,0,0,1,3.961-2.137,7.311,7.311,0,0,1-1.509,4.639A5.265,5.265,0,0,1,901.052,101.167Z" transform="translate(-608.361 -14.601)" fill="#8fc31f"/>
    <circle id="Ellipse_217" data-name="Ellipse 217" cx="8.123" cy="8.123" r="8.123" transform="translate(112.23 84.573)" fill="#e48098"/>
    <ellipse id="Ellipse_218" data-name="Ellipse 218" cx="8.078" cy="8.445" rx="8.078" ry="8.445" transform="translate(231.08 84.301)" fill="#dae000"/>
    <ellipse id="Ellipse_219" data-name="Ellipse 219" cx="9.199" cy="8.519" rx="9.199" ry="8.519" transform="translate(188.555 84.301)" fill="#faee00"/>
    <g id="Group_1099" data-name="Group 1099" transform="translate(81.716 75.045)">
      <path id="Path_405" data-name="Path 405" d="M81.716,94.378c0-7.471,5.489-12.961,13.265-12.961,6.252,0,11.055,3.545,12.656,8.844h-2.9a10.446,10.446,0,1,0,0,8.234h2.9c-1.6,5.3-6.4,8.844-12.656,8.844C87.205,107.338,81.716,101.849,81.716,94.378Z" transform="translate(-81.716 -79.778)" fill="#231815"/>
      <path id="Path_406" data-name="Path 406" d="M192.243,115.148c0-5.87,4.193-10.025,10.14-10.025s10.1,4.079,10.1,10.025v9.3h-2.363V119.8A8.316,8.316,0,0,1,202,124.945,9.459,9.459,0,0,1,192.243,115.148Zm17.688-.114a7.548,7.548,0,1,0-7.548,7.548A7.245,7.245,0,0,0,209.931,115.034Z" transform="translate(-163.806 -97.384)" fill="#231815"/>
      <path id="Path_407" data-name="Path 407" d="M288.251,75.045h2.554V102.11h-2.554Z" transform="translate(-235.113 -75.045)" fill="#231815"/>
      <path id="Path_408" data-name="Path 408" d="M318.326,75.045h2.554V102.11h-2.554Z" transform="translate(-257.45 -75.045)" fill="#231815"/>
      <path id="Path_409" data-name="Path 409" d="M382.773,94.378c0-7.471,5.489-12.961,13.266-12.961,6.023,0,10.75,3.316,12.5,8.31h-3.011a10.528,10.528,0,1,0-9.492,15.1c5.413,0,9.339-3.05,10.33-8.005H394.476V94.3h14.791v1.3c-.572,6.823-5.87,11.741-13.228,11.741C388.262,107.338,382.773,101.849,382.773,94.378Z" transform="translate(-305.316 -79.778)" fill="#006934"/>
      <path id="Path_410" data-name="Path 410" d="M494.189,115.148c0-5.87,4.193-10.025,10.14-10.025s10.1,4.079,10.1,10.025v9.3h-2.363V119.8a8.317,8.317,0,0,1-8.12,5.146A9.459,9.459,0,0,1,494.189,115.148Zm17.688-.114a7.548,7.548,0,1,0-7.548,7.548A7.245,7.245,0,0,0,511.877,115.034Z" transform="translate(-388.067 -97.384)" fill="#006934"/>
      <path id="Path_411" data-name="Path 411" d="M587.383,113.166c0-5.413,3.24-8.043,7.929-8.043s7.891,2.63,7.891,8.081v.229h-2.516v-.267c0-3.926-2.173-5.68-5.375-5.68-3.24,0-5.375,1.753-5.375,5.68V124.45h-2.554Z" transform="translate(-457.284 -97.384)" fill="#006934"/>
      <path id="Path_412" data-name="Path 412" d="M655.684,92.618a9.493,9.493,0,0,1,9.758-9.835,8.47,8.47,0,0,1,7.929,4.536V75.045h2.554V92.58c0,6.061-4.231,10.025-10.063,10.025C659.877,102.606,655.684,98.413,655.684,92.618Zm17.687.076a7.548,7.548,0,1,0-7.548,7.548A7.224,7.224,0,0,0,673.371,92.695Z" transform="translate(-508.012 -75.045)" fill="#006934"/>
      <path id="Path_413" data-name="Path 413" d="M745.913,115.034c0-5.718,4.193-9.911,10.14-9.911s10.063,4.193,10.063,9.911v.839H748.543a7.158,7.158,0,0,0,7.51,6.709,7.009,7.009,0,0,0,6.48-3.393h2.783a9.647,9.647,0,0,1-9.263,5.756C750.106,124.945,745.913,120.752,745.913,115.034Zm17.535-1.449a7.556,7.556,0,0,0-14.828,0Z" transform="translate(-575.027 -97.384)" fill="#006934"/>
      <path id="Path_414" data-name="Path 414" d="M835.995,114.615c0-6.252,3.736-9.492,9.3-9.492s9.3,3.24,9.3,9.492v9.835h-2.554v-9.835c0-4.651-2.669-7.128-6.747-7.128s-6.747,2.478-6.747,7.128v9.835h-2.554Z" transform="translate(-641.932 -97.384)" fill="#006934"/>
    </g>
    <circle id="Ellipse_220" data-name="Ellipse 220" cx="0.713" cy="0.713" r="0.713" transform="translate(196.876 87.825)" fill="#006934"/>
    <circle id="Ellipse_221" data-name="Ellipse 221" cx="0.713" cy="0.713" r="0.713" transform="translate(200.915 87.825)" fill="#006934"/>
    <path id="Path_415" data-name="Path 415" d="M528.195,137.31a4.025,4.025,0,0,0,5.421-.028" transform="translate(-331.608 -46.224)" fill="none" stroke="#006934" stroke-miterlimit="10" stroke-width="0.5"/>
    <circle id="Ellipse_222" data-name="Ellipse 222" cx="0.713" cy="0.713" r="0.713" transform="translate(235.811 87.825)" fill="#006934"/>
    <circle id="Ellipse_223" data-name="Ellipse 223" cx="0.713" cy="0.713" r="0.713" transform="translate(239.85 87.825)" fill="#006934"/>
    <path id="Path_416" data-name="Path 416" d="M682.26,137.363c-1.168.079-2.875-1.206-2.931-2.38a1.265,1.265,0,0,1,.068-.62c.182-.294.61-.249.955-.277a29.923,29.923,0,0,1,3.68-.07,6.934,6.934,0,0,1,.98.076c.493.167.484.733.3,1.221A3.089,3.089,0,0,1,682.26,137.363Z" transform="translate(-443.852 -43.779)" fill="none" stroke="#006934" stroke-miterlimit="10" stroke-width="0.5"/>
    <circle id="Ellipse_224" data-name="Ellipse 224" cx="0.713" cy="0.713" r="0.713" transform="translate(118.867 87.112)" fill="#231815"/>
    <circle id="Ellipse_225" data-name="Ellipse 225" cx="0.713" cy="0.713" r="0.713" transform="translate(122.906 87.112)" fill="#231815"/>
    <path id="Path_417" data-name="Path 417" d="M584.173,103.162s-1.83.893-3.841-1.04A5.291,5.291,0,0,1,578.44,98.6a6.5,6.5,0,0,1,4.12,1.35A4.679,4.679,0,0,1,584.173,103.162Z" transform="translate(-368.925 -17.493)" fill="#8fc31f"/>
    <ellipse id="Ellipse_226" data-name="Ellipse 226" cx="2.479" cy="2.151" rx="2.479" ry="2.151" transform="translate(119.065 89.391)" fill="none" stroke="#231815" stroke-miterlimit="10" stroke-width="2"/>
  </g>
</svg>
